<svg width="14" height="14" viewBox="0 0 14 14" fill="none" xmlns="http://www.w3.org/2000/svg">
<path d="M6.62061 13.2412C5.70654 13.2412 4.84961 13.0677 4.0498 12.7207C3.25 12.3779 2.54541 11.904 1.93604 11.2988C1.33089 10.6937 0.856934 9.99121 0.51416 9.19141C0.171387 8.3916 0 7.53467 0 6.62061C0 5.70654 0.171387 4.84961 0.51416 4.0498C0.856934 3.25 1.33089 2.54753 1.93604 1.94238C2.54541 1.33301 3.25 0.856934 4.0498 0.51416C4.84961 0.171387 5.70654 0 6.62061 0C7.53467 0 8.3916 0.171387 9.19141 0.51416C9.99121 0.856934 10.6937 1.33301 11.2988 1.94238C11.904 2.54753 12.3779 3.25 12.7207 4.0498C13.0677 4.84961 13.2412 5.70654 13.2412 6.62061C13.2412 7.53467 13.0677 8.3916 12.7207 9.19141C12.3779 9.99121 11.904 10.6937 11.2988 11.2988C10.6937 11.904 9.99121 12.3779 9.19141 12.7207C8.3916 13.0677 7.53467 13.2412 6.62061 13.2412ZM6.62061 11.7876C7.33577 11.7876 8.00439 11.6543 8.62646 11.3877C9.25277 11.1211 9.80078 10.7508 10.2705 10.2769C10.7445 9.79867 11.1147 9.24854 11.3813 8.62646C11.6522 8.00016 11.7876 7.33154 11.7876 6.62061C11.7876 5.90544 11.6522 5.23682 11.3813 4.61475C11.1147 3.98844 10.7445 3.43831 10.2705 2.96436C9.80078 2.4904 9.25277 2.12012 8.62646 1.85352C8.00439 1.58691 7.33577 1.45361 6.62061 1.45361C5.90544 1.45361 5.2347 1.58691 4.6084 1.85352C3.98633 2.12012 3.43831 2.4904 2.96436 2.96436C2.4904 3.43831 2.12012 3.98844 1.85352 4.61475C1.58691 5.23682 1.45361 5.90544 1.45361 6.62061C1.45361 7.33154 1.58691 8.00016 1.85352 8.62646C2.12012 9.24854 2.4904 9.79867 2.96436 10.2769C3.43831 10.7508 3.98633 11.1211 4.6084 11.3877C5.2347 11.6543 5.90544 11.7876 6.62061 11.7876ZM10.772 10.8164C10.3573 11.1719 9.90446 11.4702 9.41357 11.7114C8.92692 11.9569 8.44027 12.141 7.95361 12.2637C7.46696 12.3906 7.02262 12.4541 6.62061 12.4541C6.22705 12.4541 5.78483 12.3906 5.29395 12.2637C4.80729 12.141 4.31852 11.9569 3.82764 11.7114C3.33675 11.4702 2.88607 11.1719 2.47559 10.8164L2.50098 10.6768C2.65755 10.3678 2.92627 10.0737 3.30713 9.79443C3.68799 9.5109 4.15983 9.28027 4.72266 9.10254C5.28548 8.9248 5.91813 8.83594 6.62061 8.83594C7.33154 8.83594 7.96842 8.9248 8.53125 9.10254C9.09408 9.28027 9.5638 9.5109 9.94043 9.79443C10.3213 10.0737 10.59 10.37 10.7466 10.6831L10.772 10.8164ZM6.62061 7.81396C6.21012 7.80973 5.83984 7.70182 5.50977 7.49023C5.17969 7.27865 4.91732 6.993 4.72266 6.6333C4.53223 6.26937 4.4349 5.861 4.43066 5.4082C4.42643 4.98079 4.52165 4.58936 4.71631 4.23389C4.9152 3.87842 5.17969 3.59277 5.50977 3.37695C5.84408 3.16113 6.21436 3.05322 6.62061 3.05322C7.03109 3.05322 7.40137 3.16113 7.73145 3.37695C8.06152 3.59277 8.32389 3.87842 8.51855 4.23389C8.71745 4.58936 8.81689 4.98079 8.81689 5.4082C8.81689 5.861 8.71956 6.26937 8.5249 6.6333C8.33024 6.99723 8.06787 7.28711 7.73779 7.50293C7.40771 7.71452 7.03532 7.8182 6.62061 7.81396Z" fill="white" fill-opacity="0.85"/>
</svg>
