<svg width="13" height="13" viewBox="0 0 13 13" fill="none" xmlns="http://www.w3.org/2000/svg">
<path d="M2.87549 12.6064C2.33805 12.6064 1.8514 12.488 1.41553 12.251C0.983887 12.0182 0.638997 11.6945 0.380859 11.2798C0.126953 10.8651 0 10.3848 0 9.83887C0 9.29297 0.126953 8.81266 0.380859 8.39795C0.638997 7.98324 0.983887 7.65951 1.41553 7.42676C1.8514 7.18978 2.33805 7.07129 2.87549 7.07129H9.4834C10.0208 7.07129 10.5054 7.18978 10.937 7.42676C11.3729 7.65951 11.7178 7.98324 11.9717 8.39795C12.2298 8.81266 12.3589 9.29297 12.3589 9.83887C12.3589 10.3848 12.2298 10.8651 11.9717 11.2798C11.7178 11.6945 11.3729 12.0182 10.937 12.251C10.5054 12.488 10.0208 12.6064 9.4834 12.6064H2.87549ZM9.64844 11.356C9.9235 11.356 10.1753 11.2861 10.4038 11.1465C10.6323 11.0111 10.8143 10.827 10.9497 10.5942C11.0894 10.3615 11.1613 10.1034 11.1655 9.81982C11.1655 9.54476 11.0978 9.29508 10.9624 9.0708C10.827 8.84229 10.6429 8.66032 10.4102 8.5249C10.1816 8.38949 9.92773 8.32178 9.64844 8.32178C9.36914 8.32178 9.11523 8.38949 8.88672 8.5249C8.6582 8.66032 8.47624 8.84229 8.34082 9.0708C8.2054 9.29932 8.1377 9.55322 8.1377 9.83252C8.1377 10.1118 8.2054 10.3657 8.34082 10.5942C8.47624 10.8228 8.6582 11.0047 8.88672 11.1401C9.11523 11.2798 9.36914 11.3517 9.64844 11.356ZM3.13574 6.1001C2.54329 6.1001 2.01009 5.97314 1.53613 5.71924C1.06217 5.46533 0.687663 5.10986 0.412598 4.65283C0.137533 4.19157 0 3.65837 0 3.05322C0 2.44385 0.137533 1.91064 0.412598 1.45361C0.687663 0.99235 1.06217 0.634766 1.53613 0.380859C2.01009 0.126953 2.54329 0 3.13574 0H9.22314C9.81559 0 10.3488 0.126953 10.8228 0.380859C11.2967 0.634766 11.6712 0.99235 11.9463 1.45361C12.2214 1.91064 12.3589 2.44385 12.3589 3.05322C12.3589 3.65837 12.2214 4.19157 11.9463 4.65283C11.6712 5.10986 11.2967 5.46533 10.8228 5.71924C10.3488 5.97314 9.81559 6.1001 9.22314 6.1001H3.13574ZM3.13574 4.82422H9.22314C9.56169 4.82422 9.87061 4.75016 10.1499 4.60205C10.4334 4.44971 10.6598 4.24023 10.8291 3.97363C10.9984 3.70703 11.083 3.40023 11.083 3.05322C11.083 2.70199 10.9984 2.39518 10.8291 2.13281C10.6598 1.86621 10.4334 1.65885 10.1499 1.51074C9.87061 1.3584 9.56169 1.28223 9.22314 1.28223H3.13574C2.7972 1.28223 2.48617 1.3584 2.20264 1.51074C1.92334 1.65885 1.69906 1.86621 1.52979 2.13281C1.36051 2.39518 1.27588 2.70199 1.27588 3.05322C1.27588 3.40023 1.36051 3.70703 1.52979 3.97363C1.69906 4.24023 1.92334 4.44971 2.20264 4.60205C2.48617 4.75016 2.7972 4.82422 3.13574 4.82422ZM3.13574 4.41162C2.88184 4.41162 2.6512 4.35026 2.44385 4.22754C2.24072 4.10482 2.0778 3.93978 1.95508 3.73242C1.83659 3.52507 1.77734 3.29655 1.77734 3.04688C1.77734 2.7972 1.83659 2.56868 1.95508 2.36133C2.0778 2.15397 2.24072 1.98893 2.44385 1.86621C2.6512 1.74349 2.88184 1.68213 3.13574 1.68213C3.38965 1.68213 3.62028 1.74349 3.82764 1.86621C4.03499 1.9847 4.20003 2.14762 4.32275 2.35498C4.44548 2.55811 4.50472 2.78662 4.50049 3.04053C4.50049 3.29443 4.43913 3.52507 4.31641 3.73242C4.19368 3.93978 4.02865 4.10693 3.82129 4.23389C3.61816 4.35661 3.38965 4.41585 3.13574 4.41162Z" fill="white" fill-opacity="0.85"/>
</svg>
